<svg width="200" height="200" viewBox="0 0 200 200" xmlns="http://www.w3.org/2000/svg">
  <!-- Background Circle -->
  <circle cx="100" cy="100" r="95" fill="#1e40af" stroke="#1e3a8a" stroke-width="3"/>
  
  <!-- Inner Circle -->
  <circle cx="100" cy="100" r="75" fill="#3b82f6" opacity="0.9"/>
  
  <!-- Empire Building Icon -->
  <g transform="translate(60, 60)">
    <!-- Main Building -->
    <rect x="35" y="20" width="25" height="50" fill="white" opacity="0.95"/>
    <rect x="37" y="25" width="4" height="4" fill="#1e40af"/>
    <rect x="43" y="25" width="4" height="4" fill="#1e40af"/>
    <rect x="49" y="25" width="4" height="4" fill="#1e40af"/>
    <rect x="55" y="25" width="4" height="4" fill="#1e40af"/>
    
    <rect x="37" y="35" width="4" height="4" fill="#1e40af"/>
    <rect x="43" y="35" width="4" height="4" fill="#1e40af"/>
    <rect x="49" y="35" width="4" height="4" fill="#1e40af"/>
    <rect x="55" y="35" width="4" height="4" fill="#1e40af"/>
    
    <rect x="37" y="45" width="4" height="4" fill="#1e40af"/>
    <rect x="43" y="45" width="4" height="4" fill="#1e40af"/>
    <rect x="49" y="45" width="4" height="4" fill="#1e40af"/>
    <rect x="55" y="45" width="4" height="4" fill="#1e40af"/>
    
    <!-- Side Buildings -->
    <rect x="20" y="35" width="15" height="35" fill="white" opacity="0.85"/>
    <rect x="22" y="40" width="3" height="3" fill="#1e40af"/>
    <rect x="27" y="40" width="3" height="3" fill="#1e40af"/>
    <rect x="22" y="50" width="3" height="3" fill="#1e40af"/>
    <rect x="27" y="50" width="3" height="3" fill="#1e40af"/>
    <rect x="22" y="60" width="3" height="3" fill="#1e40af"/>
    <rect x="27" y="60" width="3" height="3" fill="#1e40af"/>
    
    <rect x="60" y="40" width="15" height="30" fill="white" opacity="0.85"/>
    <rect x="62" y="45" width="3" height="3" fill="#1e40af"/>
    <rect x="67" y="45" width="3" height="3" fill="#1e40af"/>
    <rect x="62" y="55" width="3" height="3" fill="#1e40af"/>
    <rect x="67" y="55" width="3" height="3" fill="#1e40af"/>
    <rect x="62" y="65" width="3" height="3" fill="#1e40af"/>
    <rect x="67" y="65" width="3" height="3" fill="#1e40af"/>
    
    <!-- Small Buildings -->
    <rect x="5" y="50" width="12" height="20" fill="white" opacity="0.75"/>
    <rect x="7" y="55" width="2" height="2" fill="#1e40af"/>
    <rect x="11" y="55" width="2" height="2" fill="#1e40af"/>
    <rect x="7" y="60" width="2" height="2" fill="#1e40af"/>
    <rect x="11" y="60" width="2" height="2" fill="#1e40af"/>
    
    <rect x="78" y="55" width="12" height="15" fill="white" opacity="0.75"/>
    <rect x="80" y="60" width="2" height="2" fill="#1e40af"/>
    <rect x="84" y="60" width="2" height="2" fill="#1e40af"/>
  </g>
  
  <!-- Text - Business -->
  <text x="100" y="130" text-anchor="middle" font-family="Arial, sans-serif" font-size="18" font-weight="bold" fill="white">BUSINESS</text>
  
  <!-- Text - Empire HQ -->
  <text x="100" y="150" text-anchor="middle" font-family="Arial, sans-serif" font-size="14" font-weight="bold" fill="white" opacity="0.9">EMPIRE HQ</text>
  
</svg>